<svg xmlns="http://www.w3.org/2000/svg"  width='14' height='16' viewBox='0 0 14 16' fill='none' className="w-6 h-6 fill-current text-disrupted">
    <path fill-rule='evenodd' clip-rule='evenodd' d="M6.99999 2.3C10.14 2.3 12.7 4.86 12.7 8C12.7 11.14 10.14 13.7 6.99999 13.7C3.85999 13.7 1.29999 11.14 1.29999 8C1.29999 4.86 3.85999 2.3 6.99999 2.3ZM7 1C3.14 1 0 4.14 0 8C0 11.86 3.14 15 7 15C10.86 15 14 11.86 14 8C14 4.14 10.86 1 7 1ZM8 4H6V9H8V4ZM8 10H6V12H8V10Z"/>                                            
</svg>

