<svg xmlns="http://www.w3.org/2000/svg" viewBox="0 0 644.72 82"><defs><style>.cls-1{fill:none;}.cls-2{fill:#03f;}.cls-3{fill:#06f;}.cls-4{fill:#09f;}</style></defs><g id="Layer_2" data-name="Layer 2"><g id="Layer_3" data-name="Layer 3"><rect class="cls-1" width="644.72" height="82"/><path class="cls-2" d="M30.58,22.08a29.46,29.46,0,1,0,0,58.91H70.1s10.51.45,14-6.69C90.27,61.63,64.59,22.05,30.58,22.08Z"/><path class="cls-3" d="M104.23,41a40,40,0,1,0-40,40H96.29S104.23,51.39,104.23,41Z"/><path class="cls-4" d="M100.52,30.24a25.38,25.38,0,1,1,0,50.76H66.46s-8.89,0-12-5.77C48.6,64.56,71.21,30.22,100.52,30.24Z"/><path d="M152.23,66.94l12.37-2.51c.55,4.22,3.75,6.33,9.57,6.33a9.46,9.46,0,0,0,5.31-1.31,3.88,3.88,0,0,0,2-3.34q0-3.07-5.12-4.19l-9.48-2q-6.33-1.3-9.72-4.75a11.55,11.55,0,0,1-3.4-8.46,13.72,13.72,0,0,1,5.17-11.07q5.16-4.27,13.81-4.27,8.09,0,13.53,3.81a15.53,15.53,0,0,1,6.65,10l-11.72,2.33a6.63,6.63,0,0,0-2.74-4.65,9.94,9.94,0,0,0-6.1-1.77q-3.34,0-4.83,1.35A4.2,4.2,0,0,0,166,45.65q0,3,4.19,3.9L181.24,52q6,1.31,9.07,4.79a12.05,12.05,0,0,1,3.12,8.32q0,7.53-5.54,11.53t-14.83,4a27.8,27.8,0,0,1-14.14-3.39A13.06,13.06,0,0,1,152.23,66.94ZM248,55.13v4.19H212.63a13.71,13.71,0,0,0,4.14,7.85,10.71,10.71,0,0,0,7.48,2.93q7.91,0,11.54-6.13l11,2.32A22.33,22.33,0,0,1,237.92,77a25.48,25.48,0,0,1-13.67,3.62,23,23,0,0,1-16.92-6.88q-6.89-6.89-6.88-17.67t6.92-17.71a23.2,23.2,0,0,1,17.07-6.93,22.57,22.57,0,0,1,16.32,6.65Q247.6,44.72,248,55.13Zm-23.53-13a12.51,12.51,0,0,0-7.11,2.23A10.35,10.35,0,0,0,213,50.67h22.41a10.94,10.94,0,0,0-4.09-6.42A11.52,11.52,0,0,0,224.44,42.11Zm45.95,37.11H258.12v-67h12.27Zm22.44,0H280.55v-67h12.28Zm57.82-24.09v4.19H315.31a13.71,13.71,0,0,0,4.14,7.85,10.72,10.72,0,0,0,7.49,2.93q7.9,0,11.53-6.13l11,2.32A22.37,22.37,0,0,1,340.61,77a25.53,25.53,0,0,1-13.67,3.62A23,23,0,0,1,310,73.73q-6.88-6.89-6.88-17.67t6.93-17.71a23.16,23.16,0,0,1,17.06-6.93,22.54,22.54,0,0,1,16.32,6.65Q350.28,44.72,350.65,55.13Zm-23.53-13A12.51,12.51,0,0,0,320,44.34a10.44,10.44,0,0,0-4.33,6.33H338.1a11,11,0,0,0-4.1-6.42A11.5,11.5,0,0,0,327.12,42.11Zm62.65-10a11.12,11.12,0,0,1,3.25.37l-.65,11.81h-2.7q-16.55,0-16.55,19.91v15H360.84V32.81h12.28v8.46Q379.45,32.17,389.77,32.16Zm32.88,37.2q8.93,0,11.9-9l11.35,2.88a21.63,21.63,0,0,1-8.42,12.65A25.81,25.81,0,0,1,405,73.73q-7.21-6.89-7.21-17.67T405,38.35a24.46,24.46,0,0,1,17.62-6.93,23.91,23.91,0,0,1,14.56,4.69,23.41,23.41,0,0,1,8.69,12.42l-11.81,3.35q-2.32-9.21-11.44-9.21a12.41,12.41,0,0,0-9.35,3.72,13.39,13.39,0,0,0-3.58,9.67,13.24,13.24,0,0,0,3.58,9.63A12.48,12.48,0,0,0,422.65,69.36ZM468,79.22H455.75v-67H468ZM503.47,31.7a24.94,24.94,0,0,1,17.71,6.83q7.3,6.84,7.3,17.53t-7.3,17.53a25,25,0,0,1-17.71,6.84,25.37,25.37,0,0,1-18-6.84q-7.35-6.82-7.35-17.53t7.35-17.53A25.36,25.36,0,0,1,503.47,31.7Zm0,38.22a12.78,12.78,0,0,0,9.11-3.86,13.27,13.27,0,0,0,4-10,13.28,13.28,0,0,0-4-10,12.78,12.78,0,0,0-9.11-3.86,13.44,13.44,0,0,0-13.4,13.86,13.43,13.43,0,0,0,13.4,13.86Zm79.65-37.11V79.22H570.84V75q-5.57,5.58-14.6,5.58-8.37,0-13.48-5.44t-5.12-14.09V32.81h12.28V58.48a11.66,11.66,0,0,0,2.56,7.9,8.53,8.53,0,0,0,6.83,3q11.54,0,11.53-16V32.81Zm60.6-20.55v67H631.44V75.59a23.65,23.65,0,0,1-15.34,5,21.61,21.61,0,0,1-16-7q-6.78-7-6.79-17.58t6.84-17.62a21.59,21.59,0,0,1,16-7q9.21,0,15.34,5.11V12.26ZM618.24,69.92a12.86,12.86,0,0,0,9.2-3.86,13.27,13.27,0,0,0,4-10,13.4,13.4,0,0,0-4-10,12.76,12.76,0,0,0-9.2-3.91,12.44,12.44,0,0,0-9.35,3.81q-3.67,3.82-3.67,10.14t3.67,10.09A12.52,12.52,0,0,0,618.24,69.92Z"/></g></g></svg>